<?xml version="1.0" encoding="UTF-8"?>
<svg id="Layer_2" data-name="Layer 2" xmlns="http://www.w3.org/2000/svg" viewBox="0 0 420.38 824">
  <defs>
    <style>
      .cls-1 {
        fill: #9a0002;
      }
    </style>
  </defs>
  <g id="Layer_1-2" data-name="Layer 1">
    <g>
      <path class="cls-1" d="m418.54,687.54c0,5.04-.2,10.09.05,15.12.4,8.16.77,16.31.54,24.48-.06,2.27-.6,4.47-.58,6.72.04,3.97-.22,7.93.71,11.9.58,2.46-.03,5.09-.07,7.64-.11,6.09-.03,12.17.1,18.27.15,6.9.25,13.81,0,20.72-.25,6.88-.93,13.82.73,20.66.63,2.59.24,5.25.33,7.87.06,1.66-.78,2.3-2.36,2.23-3.15-.12-6.31-.26-9.46-.31-4.29-.06-8.59.21-12.86-.08-6.42-.44-12.84-.72-19.27-.72-2.9,0-5.76.72-8.69.85-4.7.22-9.23-1.27-13.89-.96-6.59.44-13.19.14-19.78.18-5.69.04-11.4.02-17.1-.03-5.25-.05-10.52.15-15.78.16-16.16.04-32.33-.49-48.47.14-18.04.7-36.08-.13-54.1.49-19.1.66-38.19-.65-57.27,0-5.78.19-11.56.22-17.34.25-8.09.05-16.2-.4-24.28-.2-15.93.4-31.88-.28-47.79.38-9.4.39-18.8-.13-28.16.51-6.02.41-12.02-.59-18.01.15-1.5.18-2.26-.63-2.28-2.11-.03-2.33-.2-4.68.02-6.99.43-4.54-.49-8.98-.69-13.47-.42-9.39-.96-18.86.01-28.16.81-7.78-.86-15.42.11-23.09.8-6.25.63-12.54.72-18.81.06-4.04-.58-8.08-.86-12.12-.35-5.02-.32-10.05.02-15.07.2-2.95-.06-5.86-.33-8.78-.09-1.03-.79-1.75-1.41-2.52-1.55-1.95-1.4-3.43.54-4.96,1.54-1.22,1.85-2.96,1.81-4.66-.3-11.58.5-23.14.3-34.73-.12-7.21-.1-14.52.71-21.77.66-5.9.37-11.86.08-17.8-.21-4.28-.36-8.58.08-12.84.21-2.06-.24-4.05-.22-6.07.07-9.47-.33-18.96.39-28.42.26-3.45,1.06-6.97.38-10.32-1.22-6-1.11-12.04-.65-17.98,1.72-22.01.24-44.04.8-66.05.06-2.29-.27-4.48-1.11-6.62-.79-2.01-1.08-4.16-.38-6.2.81-2.35.63-4.7.61-7.09-.08-9.84,1.45-19.63.88-29.49-.31-5.4-1.3-10.78-.87-16.19,1.91-23.58.37-47.2.81-70.79.07-3.66-1.2-7.25-.9-10.97.15-1.8.15-3.6.65-5.35.47-1.62.48-3.31.14-4.92-1.47-7.09-.7-14.24-.55-21.36.06-2.64-.45-5.26-.18-7.87.77-7.55,1.01-15.12.89-22.71-.03-2.11-.06-4.19-.63-6.26-.77-2.83.09-5.69.05-8.53-.12-8.95-.28-17.89-.32-26.84-.06-12.86-.06-25.71.02-38.57.01-2.28-.66-4.42-.7-6.7-.38-21.42.11-42.85-.37-64.27-.21-9.3-.82-18.59-.58-27.9.1-4.09.16-8.1-.88-12.08-.29-1.1-.22-2.24-.06-3.36.66-4.69,1.3-9.48.84-14.13-.49-5.04-.55-10.05-.68-15.07-.1-3.8-1.35-7.47-1.08-11.34.12-1.77.11-3.61.28-5.38C1.53,13.18.07,9.26.18,5.2c.08-2.81.65-3.47,3.45-3.53,2.84-.07,5.7.07,8.54.12,9.99.17,19.91-1.86,29.93-.81,3.55.37,7.18-.16,10.78-.2,2.25-.03,4.51-.01,6.76.14,2.48.16,4.87.02,7.36-.42,4.14-.72,8.39-.61,12.57.01,1.94.29,3.85.6,5.82.59,9.4-.03,18.79-.12,28.19,0,5.32.07,10.64.7,15.96.73,11.11.05,22.23-.11,33.34-.24,1.11-.01,2.21-.41,3.31-.64,1.34-.28,2.73-.45,4.03-.1,6.19,1.68,12.53.85,18.77.92,3.59.04,7.32-1.17,10.94-.63,7.85,1.16,15.73.43,23.58.54,7.72.11,15.46.17,23.19.01,8.09-.17,16.2.2,24.3-.06,4.16-.13,8.34.84,12.5-.67,1.89-.69,3.94.76,5.99.67,6.29-.26,12.59.38,18.89-.73,3.5-.61,7.19-.23,10.79-.1,6.98.24,13.97-.03,20.94.15,10.72.27,21.45-1.01,32.19.5,4.61.65,9.42.61,14.13-.45,3.38-.76,6.86.05,10.32-.17,5.84-.38,11.73-.14,17.59-.1,3.2.02,3.39.34,4.29,3.38,1.39,4.74.7,9.57.74,14.36.07,7.58-.98,15.1-.9,22.7.18,16.77.29,33.56-.02,50.33-.23,12.41.36,24.8.1,37.2-.17,8.03-.15,16.07-.42,24.09-.1,2.98-1.11,5.89-.87,8.94.15,1.79.1,3.55.67,5.33.81,2.52-.52,5.03-.41,7.6.06,1.57-.18,3.15-.23,4.72-.25,7.88-.62,15.76-.69,23.65-.09,9.24.55,18.51.02,27.71-.84,14.5-.72,29-.79,43.5,0,1.66.08,3.29.39,4.93.63,3.35.69,6.74-.18,10.07-.54,2.07.35,4.03.32,6.04-.09,5.33-.4,10.72-.13,15.98.3,5.88-.11,11.83.97,17.7.78,4.22.95,8.53-.37,12.72-.41,1.3-.11,2.53-.12,3.79-.11,9.77.06,19.56-.47,29.31-.3,5.41-.73,10.85-.31,16.21,1.26,15.98.9,31.98.67,47.95-.14,9.48.43,18.94.14,28.4-.42,13.9-.2,27.8.19,41.68.2,7.18.75,14.38.7,21.58-.05,6.91-.33,13.82-.31,20.73.03,12.39-.24,24.82.54,37.17.36,5.66.1,11.41,1.12,17.04.19,1.06.02,2.09-.34,3.1-1.13,3.17-1.24,6.48-1.07,9.79.13,2.56.03,5.11-.25,7.65-.46,4.24,1.07,8.36.95,12.56-.26,9.54.59,19.07.12,28.62-.34,6.74-.07,13.51-.07,20.27.07,0,.15,0,.22,0Zm-78.66,121.57h0c10,0,20.01,0,30.01,0,10.45,0,20.91,0,31.36-.01,2.81,0,4.04-.96,4.11-3.37.23-7.02.41-14.03.86-21.05.48-7.49-.12-15-.76-22.49-.4-4.81.22-9.64.11-14.5-.43-17.74-.1-35.51-.19-53.26-.12-22.7.53-45.4-.82-68.08-.26-4.42-.25-8.89.05-13.31.44-6.33,2.61-12.62,0-18.96-.22-.52-.02-1.2-.1-1.79-.38-2.98.62-5.81.93-8.71.4-3.74-1.12-7.27-.95-10.97.51-11.48-.83-22.99.85-34.45.73-5-.65-10.02-.76-15.03-.19-8.65.19-17.31-.16-25.95-.36-8.69.55-17.32.19-26.02-.92-22.45.37-44.92-.82-67.4-.95-17.93-.19-35.95-.19-53.93,0-1.89.23-3.71.64-5.57.58-2.59.58-5.25-.75-7.69-.6-1.1-.63-2.28-.79-3.47-.43-3.29.85-6.38.96-9.61.3-8.92-.97-17.9.79-26.78.08-.43.06-.92-.07-1.34-1.08-3.53-.84-7.17-.76-10.76.42-19.76-.33-39.5.66-59.28.69-13.67,1.23-27.48-.62-41.19-.76-5.64.85-11.21.87-16.84.03-8.13.13-16.25-.03-24.37-.07-3.57,1.46-6.94.92-10.52-.44-2.96-.91-5.9-1.02-8.93-.2-5.74,1.17-11.33,1.09-17.08-.09-6.66-.86-13.38.76-20,.18-.75-.1-1.64-.3-2.43-.38-1.47-.52-2.95-.52-4.47,0-4.21.48-8.38.74-12.56.51-8.09.18-16.24.16-24.37,0-.81-.21-1.64-.43-2.43-.72-2.6-.85-5.28-.14-7.81,1.26-4.48,1.58-8.99,1.5-13.61-.08-4.46-1.26-5.63-5.77-5.81-3.35-.14-6.49,1.02-9.84,1-15.04-.13-30.09-.25-45.12,0-23.36.4-46.75-1.13-70.09.87-7.16.61-14.21-.8-21.33-.98-5.67-.15-11.19,1.04-16.84,1.01-27.53-.11-55.05-.15-82.58.02-10.8.06-21.59-.56-32.42.71-7.34.86-14.83-.5-22.23-.63-20.22-.35-40.46-.13-60.69-.14-7.45,0-14.89-.04-22.34,0-3.32.01-4.24.93-4.15,4.15.13,4.5-.38,9.03.79,13.48.28,1.08.23,2.26-.12,3.35-.64,2.04-.59,4.14-.67,6.25-.13,3.48.7,6.88.8,10.3.4,14.19-.14,28.39.9,42.58.5,6.78.35,13.66-.77,20.45-.5,3.02.83,5.94.88,8.94.47,27.66-.16,55.31.68,82.98,1.31,42.75-.89,85.56,1.06,128.34.31,6.89-.65,13.81-.71,20.67-.33,35.21-.15,70.42-.15,105.63,0,15.2.05,30.39-.06,45.59-.02,2.45,1.17,4.74.8,7.13-1.27,8.33-1.21,16.76-1.45,25.12-.3,10.56-.91,21.17.63,31.74.99,6.81-.79,13.6-.86,20.44-.32,34.2,1.01,68.42-.81,102.62-.3,5.55-.02,11.13-.02,16.7,0,1.21.18,2.39.45,3.57.79,3.42.72,6.92.2,10.32-1.04,6.9-.88,13.74-.03,20.63.46,3.73.8,7.58,0,11.23-1.41,6.39-.01,12.7.03,19.03.01,1.91.18,3.72-.66,5.47-1.1,2.28-1.15,4.67-.56,7.05.45,1.85.57,3.7.56,5.59-.02,3.76-.09,7.53.07,11.28.14,3.37,1.67,4.67,5.04,4.67,3.61,0,7.22.07,10.83,0,27.57-.58,55.16.98,82.72-.91,5.18-.35,10.33.19,15.49.8,5.48.65,10.92-.69,16.38-.81,6.99-.14,13.99.09,20.98-.03,5.24-.09,10.53.65,15.71-.8.6-.17,1.36.01,1.99.2,1.83.56,3.69.63,5.58.59,23.81-.5,47.64.97,71.44-.84,6.5-.49,13.04.6,19.55.71,19.77.33,39.56.12,59.34.12Z"/>
      <path class="cls-1" d="m359.25,570.78c9.63,0,19.25,0,28.88,0,4.15,0,4.8.63,4.82,4.88.03,5.34,0,10.68-.03,16.02-.01,1.96.12,3.88.6,5.81.68,2.68-.4,4.07-3.15,4.13-3.53.07-7.07.12-10.6,0-6.26-.21-12.39.93-18.57,1.55-5.35.54-10.79.75-16.17-.33-1.1-.22-2.24-.3-3.36-.3-31.06,0-62.12-.02-93.17.09-4.02.01-7.86-1.25-11.87-1.07-1.53.07-2.51-1.03-2.61-2.59-.1-1.42-.29-2.93.08-4.26.95-3.41.73-6.86.74-10.31.02-22.27,0-44.53.02-66.8,0-1.96-.1-3.9-.63-5.81-.51-1.84-.6-3.8-.13-5.59.94-3.57.71-7.16.71-10.76,0-27.61,0-55.22.04-82.82,0-2.23-.52-4.32-1.02-6.44-.35-1.5-1.4-1.83-2.49-.77-2.41,2.33-4.84,4.53-5.81,8.09-1.15,4.18-2.94,8.2-5.4,11.84-2.36,3.49-4.57,3.84-7.11.52-2.8-3.67-5.74-7.24-7.94-11.41-2.85-5.38-6.83-10.06-11.59-13.93-2.63-2.14-2.91-3.23-1.4-6.3,2.09-4.26,5.04-7.78,8.49-10.97,2.15-1.99,4.27-4.02,6.04-6.39,1.5-2.01,2.88-3.99,3.18-6.6.17-1.52,1.17-2.75,2.24-3.84,1.16-1.18,2.41-2.28,3.5-3.52,2.54-2.87,5.07-5.7,5.01-9.99-.02-1.57.69-3.26,1.45-4.7,2.28-4.37,4.26-8.88,6.83-13.14,2.29-3.8,4.69-7.76,5.45-12.48.45-2.78,2.2-5.39,4.04-7.7.71-.9,1.62-1.76,1.63-2.9.05-4.47,2.9-8.2,3.16-12.6.02-.36.17-.75.37-1.05,3.62-5.31,3.92-11.69,5.69-17.6.41-1.38.71-2.75,1.59-3.92,1.55-2.06,2.31-4.35,2.13-6.96-.24-3.58.13-6.99,2.1-10.18,1.23-1.99.77-4.46.56-6.65-.33-3.5,1.16-6.44,2.24-9.53.23-.66.7-1.15,1.28-1.54,2.28-1.54,8.37-.89,10.18,1.13,1.38,1.53,1.25,3.47.79,5.15-1.78,6.64-1.37,13.41-1.81,20.15-.3,4.72-.53,9.62-2.82,14.03-.94,1.81-.63,3.84-.6,5.78.05,3.78-.25,7.34-2.22,10.84-2.42,4.3-1.46,9.25-1.28,13.96.06,1.53,1.32,2.48,2.74,3.02,1.7.64,3.43,1.05,5.28,1.04,8.5-.04,17.02.36,25.48-.17,5.62-.35,11.22-.67,16.84-.77,2.83-.05,4.15-2.11,2.9-4.66-1.56-3.19-2.71-6.52-3.95-9.83-.4-1.06-.97-2.03-1.76-2.87-1.97-2.1-3.03-4.67-3.54-7.44-.34-1.82-.99-3.45-2.03-4.96-2.46-3.58-4.93-7.16-6.41-11.31-.3-.83-.83-1.61-1.41-2.29-3.5-4.14-6.26-8.73-8.64-13.59-.96-1.95-2.82-3.3-3.93-5.2-1.58-2.7-1.54-5.39.32-7.5,2.94-3.32,6.15-4.41,9.09-3.08.94.42,1.59,1.14,2.09,1.99,1.21,2.08,3.06,3.29,5.34,3.84,1.61.39,2.89,1.25,3.99,2.41,2.77,2.91,5.82,5.43,9.47,7.17.27.13.57.27.75.49,4.07,5.02,10.06,7.82,14.42,12.49,3.29,3.53,8.1,5.17,11.02,9.16,3.12,4.25,6.75,8.04,10.86,11.38,1.59,1.3,1.54,3.1.07,4.8-3.58,4.12-6.92,8.44-12.12,10.85-2.43,1.12-4.06,3.54-5.87,5.54-.93,1.04-.57,2.01.78,2.36.86.22,1.78.24,2.68.24,15.34.01,30.68,0,46.02,0,4.18,0,4.85.67,4.84,4.85,0,7.3-.03,14.59-.06,21.89-.02,3.74-1.21,4.99-5.03,5-13.54.05-27.07.05-40.61.06-1.81,0-3.6.09-5.36.59-1.63.47-3.25.27-4.91-.03-4.13-.77-6.34,1.05-6.33,5.24,0,2.22-.6,4.32-1,6.45-1.07,5.6-.92,11.14-.14,16.79.58,4.21.24,8.56.24,12.84,0,1.9.21,3.75.66,5.58.78,3.16,1.51,3.8,4.84,3.82,8.57.03,17.15.02,25.72.01,6.54,0,13.08-.04,19.63-.02,3.41.01,4.22.87,4.22,4.32,0,7.67,0,15.35,0,23.02,0,3.26-.24,3.52-3.44,3.53-11.81.03-23.61,0-35.42.03-3.9.01-7.7,1.09-11.64,1.05-2.21-.02-3.35,1.78-3.67,4.15-1.59,11.75-.78,23.56-.83,35.34-.01,3.21.91,6.37.95,9.62.03,2.38,1.83,3.73,4.5,3.81,3.16.09,6.32.05,9.47.05,11.05,0,22.11-.04,33.16-.01,1.76,0,3.41-.43,5.11-.75,3.9-.75,5.38.45,5.39,4.38.02,8.05,0,16.1-.02,24.15,0,3.04-.87,3.94-3.86,3.97-3.38.04-6.77.13-10.15-.01-10.9-.47-21.73,1.4-32.64.94-1.82-.08-3.57-.39-5.34-.73-3.37-.65-5.37,1.05-5.76,4.28-1.53,12.59-.73,25.22-.82,37.84-.02,3.13.55,6.27,1.03,9.38.35,2.29,1.92,3.24,4.94,3.25,5.79.02,11.58-.02,17.37-.02,4.14,0,8.27,0,12.41,0Zm-80.58-54.88c-.83,0-1.65,0-2.48,0-6.09,0-12.18-.05-18.27.04-3.78.06-5.31,2.1-4.45,5.77.33,1.41.46,2.81.46,4.24,0,13.01,0,26.02.03,39.03,0,4.32,1.39,5.63,5.62,5.82,13.45.61,26.85-1.01,40.29-.95.44,0,.9-.08,1.33-.2,1.37-.39,2.22-1.26,2.22-2.75-.01-5.25.48-10.48.76-15.71.52-9.82.17-19.69.16-29.54,0-4.47-1.3-5.73-5.82-5.74-6.62,0-13.23,0-19.85,0Zm-.9-84.9s0,.02,0,.03c-5.86,0-11.73-.01-17.59,0-5.65.01-8.14,3-6.92,8.54.5,2.31.67,4.59.67,6.93-.01,10.98,0,21.96,0,32.93,0,3.32,1.03,4.41,4.39,4.64.82.06,1.65.07,2.48.03,7.71-.34,15.43.41,23.16-.72,4.86-.71,9.9-.15,14.86-.16,4.08,0,5.47-1.31,5.49-5.36.04-6.09-.04-12.18.04-18.27.06-4.65-.57-9.35.36-13.95.69-3.43.61-6.7-.38-10.01-.31-1.04-.74-2.03-1.74-2.53-2.21-1.1-4.39-2.2-7.02-2.16-5.94.1-11.88.03-17.81.03Zm.63-32.67s0-.02,0-.03c6.62,0,13.23.04,19.85-.02,3.34-.03,5.87-1.68,5.89-4.4.03-3.93,1.36-7.74,1.04-11.62-.53-6.44-1.09-12.86-.87-19.33.1-3.16.04-6.32.02-9.48-.02-3.71-.98-4.64-4.72-4.64-10.9,0-21.81.08-32.71-.02-3.44-.03-6.72.7-10.01,1.41-3.06.65-3.68,1.79-3.89,4.9-.24,3.65,1.07,7.1,1,10.75-.18,8.95-.06,17.9-.06,26.85,0,4.24,1.43,5.63,5.72,5.63,6.24,0,12.48,0,18.72,0Z"/>
      <path class="cls-1" d="m101.18,450.7c3.16,0,6.32-.03,9.48.01,2.05.02,4.07-.11,5.99-.86,3.19-1.24,6.51-.92,9.81-.97,1.65-.03,3.47.34,4.93-.21,5.91-2.25,12.03-1.36,18.08-1.57,2.55-.09,5.11-.08,7.67-.02,2.29.06,4.5-.09,6.55-1.27.87-.5,1.88-.44,2.86-.55,2.54-.28,3.37-1.6,2.62-4.07-.31-1.02-.83-1.94-1.5-2.76-2.53-3.07-4.74-6.38-7.34-9.42-1.76-2.06-3.25-4.49-4.63-6.86-2.23-3.83-1.36-7.55,1.88-8.92,2.14-.91,4.43-.62,6.65-.1.58.14,1.19.33,1.67.67,6.55,4.73,14.4,7.09,21.07,11.55,3.23,2.15,6.06,4.89,9.38,6.95,8.54,5.29,14.62,13.5,22.77,19.28,2,1.42,3.79,3.23,5.04,5.42,1.32,2.33,1.15,4.02-.74,5.92-8,8.06-16.01,16.11-24.07,24.12-3.04,3.02-6.43,2.21-7.94-1.77-.43-1.13-.76-2.28-.83-3.5-.04-.67-.05-1.42-.35-1.99-3.24-6.17-4.75-13.14-8.67-18.99-2.63-3.94-5.17-4.62-9.41-2.55-2.49,1.21-5.08,1.81-7.85,1.67-2.02-.11-3.88.3-5.47,1.67-.39.33-.91.7-1.38.72-3.18.14-6.15,1.07-9.16,2-5.94,1.83-12.1,2.84-18.17,4.01-5.55,1.07-10.76,3.34-16.62,3.58-4.67.18-9.36,1.75-14.18,1.74-.76,0-1.52.6-2.27.95-1.58.73-3.18,1.55-4.93,1.48-8.55-.32-16.68,1.95-24.84,3.93-3.36.81-6.71.67-10.09.63-1.26-.01-2.35-.57-3.09-1.62-4-5.76-7.72-11.65-8.89-18.75-.2-1.21-.7-2.3-1.5-3.24-1.05-1.24-1.22-2.71-1.11-4.25.13-1.77,1.11-2.98,2.85-2.86,3.8.27,7.07-1.36,10.39-2.66,6-2.35,11.95-4.86,17.83-7.52,3.61-1.63,6.81-4.05,10.05-6.32.99-.69,1.95-1.37,3.12-1.74.99-.32,2.07-.69,2.83-1.35,3.28-2.86,7.38-4.59,10.41-7.8,1.01-1.07,2.31-1.98,3.64-2.62,5.21-2.49,8.46-7.37,13.06-10.59.87-.61,1.57-1.6,1.02-2.74-.61-1.24-1.79-.81-2.81-.59-3.49.76-7.21.71-10.3,2.92-.17.13-.43.22-.64.21-6.26-.3-11.51,3.1-17.22,4.78-2.71.8-5.61.36-8.16,1.52-5.02,2.29-10.34,3.58-15.6,5.09-4.27,1.23-6.39.09-8.01-4.06-1.11-2.84-1.85-5.89-3.95-8.29-.85-.97-1.13-2.28-1.53-3.49-.64-1.95-1.44-3.79-2.97-5.24-.67-.64-1.12-1.45-1.23-2.37-.48-4.28.11-6.08,4.73-6.01,4.83.08,8.6-2.84,12.46-5.25,1.27-.79,2.41-1.76,3.87-2.22,3.87-1.22,6.84-3.91,10.19-6.01,5.51-3.46,9.46-8.52,14.47-12.45,4.19-3.29,7.97-7.13,11.29-11.31,2.25-2.82,4.91-5.28,7-8.24,1.26-1.79,4.67-2.01,7.35-.82,1.17.52,2.3,1.13,3.62,1.19,1.89.09,2.7-.71,2.45-2.57-.13-.96-.38-1.92-.69-2.85-1.53-4.61-2.91-9.29-5.84-13.29-1.17-1.59-1.98-3.36-2.43-5.3-.12-.51-.23-1.09-.54-1.47-3.38-4.14-5.8-8.97-9.11-13.12-1.89-2.38-2.39-4.47-1.41-7.22,1.61-4.53,1.52-4.57-3.35-4.58-4.61-.01-9.07,1.16-13.6,1.61-7.9.79-15.69,2.8-23.72,2.08-2.47-.22-4.92.14-7.38.63-5.5,1.09-8.9-1.12-10.67-6.31-1.48-4.34-2.73-9.13-6.5-12.44-1.23-1.08-1.41-2.62-1.32-4.16.14-2.25-.56-4.12-2.22-5.67-.54-.5-.96-1.16-1.33-1.81-1.6-2.81-.52-4.68,2.75-4.76,6.54-.16,12.99,1.09,19.55,1,16.99-.26,34,.11,50.98-.28,5.24-.12,10.55-.69,15.8-1.95,4.46-1.07,9.16-1.54,13.83-1.46,2.95.05,5.9.04,8.69-.97,5.91-2.12,12.32-1.69,18.25-3.69,1-.34,2.12-.4,3.02-.89,2.46-1.34,5.02-1.92,7.8-1.71.44.03.95,0,1.33-.18,4.23-2.05,8.84-2.09,13.36-2.59,1.07-.12,2.04-.48,2.99-.95,2.5-1.24,5.1-2.18,7.79-2.95,6.11-1.76,8.45.36,9.88,6.97.71,3.29,0,4.08-3.03,5.65-3.65,1.88-7.04,4.25-11.11,5.3-1.88.49-3.45,1.81-4.88,3.17-1.68,1.61-3.76,2.25-5.89,3.06-3.55,1.35-7.55,1.42-10.74,3.78-.36.26-.78.54-1.21.59-4.56.62-8.48,3.01-12.51,4.86-4.78,2.2-9.98,2.82-14.7,4.71-4.16,1.67-8.68,1.58-12.65,3.61-.75.38-1.76.25-2.66.32-1.05.08-2.2-.13-3.13.24-3.21,1.28-6.5,1.7-9.92,1.64-1.2-.02-2.5.29-3,1.6-.51,1.33.63,2.03,1.4,2.82.74.77,1.59,1.37,2.57,1.8,6.2,2.75,11.76,6.49,17.22,10.5,4.24,3.11,8.64,5.98,12.33,9.78.68.71,1.66,1.01,2.62,1.26,2.45.63,3.93,2.43,5.15,4.45,1.02,1.7.28,3.14-.94,4.47-2.72,2.95-5.8,5.49-9.15,7.64-4.98,3.19-8.79,7.72-13.38,11.36-1.92,1.53-1.78,2.96-.03,4.81,1.6,1.69,3.32,3.27,4.93,4.97,1.93,2.04,1.89,3.85.07,5.97-2.43,2.82-5.22,4.97-9.08,5.34-.22.02-.49.04-.65.16-3.4,2.81-7.66,4.13-11.33,6.48-4.66,2.99-9.16,6.35-14.56,7.94-3.13.92-6.09,2.17-8.94,3.71-1.13.61-1.95,1.53-1.72,2.9.25,1.44,1.48,1.97,2.7,1.93,7.02-.24,14.14,1.15,21.04-1.2,1.37-.47,2.8-.51,4.24-.51,5.57,0,11.13-.04,16.7.02,3.37.04,5.99-1.26,7.85-4.03,1.01-1.51,2.2-2.86,3.5-4.11,5.15-4.95,9.35-10.78,14.61-15.63,1.7-1.57,2.45-3.92,3.9-5.78,1.68-2.15,3.68-2.55,5.99-1.76,2.29.78,4.54,1.45,6.98,1.67,2.17.2,3.85,1.66,5.42,3.06,1.67,1.48,3.52,2.44,5.62,3.19,3.07,1.09,5.61,3.21,7.93,5.42,1.53,1.46.88,3.47-.59,4.57-4.11,3.09-7.41,7.04-11.36,10.27-1.51,1.24-3.06,2.42-4.43,3.81-.47.48-.92,1.1-1.5,1.35-5.68,2.39-9.55,7.17-14.33,10.75-.42.31-.88.6-1.36.8-6.48,2.77-11.98,6.97-17.27,11.53-2.38,2.05-5.25,3.5-7.61,5.62-.32.29-.78.58-1.19.6-6.11.31-10.06,4.98-15.09,7.46-7.53,3.71-14.64,8.26-22.52,11.29-2.14.83-4.08,2.21-6.06,3.43-1.22.75-2.41,1.47-3.8,1.92-1.6.51-2.94,1.6-2.6,3.45.32,1.74,1.99,1.57,3.32,1.59,3.76.04,7.52.01,11.28.01h0Z"/>
      <path class="cls-1" d="m178.02,529.41c-12.63,0-25.26,0-37.9,0-1.2,0-2.41-.03-3.56.43-1.02.4-1.98.93-1.99,2.18-.01,1.24.95,1.8,1.94,2.24.34.15.71.32,1.07.32,4.31.06,7.75,2.56,11.59,3.98,5.78,2.13,11.39,4.65,17.08,6.97,5.66,2.31,11.39,4.65,16.37,8.38,2.54,1.9,5.71,2.54,8.48,4.07,6.36,3.51,12.76,6.89,18.7,11.15,2.96,2.12,5.87,4.43,9.23,6.02,2.66,1.25,3.24,3.8,1.46,6.17-3.15,4.21-6.12,8.56-10.1,12.09-1.31,1.16-2.41,2.53-2.99,4.19-.67,1.91-1.81,3.44-3.29,4.77-1.18,1.07-2.09,2.35-3.02,3.63-1.49,2.06-3.24,2.2-5.19.6-8.69-7.12-15.98-15.59-23.32-24.03-3.49-4.01-7.29-7.76-11.58-11.01-6-4.55-11.24-9.97-16.41-15.42-2.86-3.02-6.27-5.37-9.28-8.2-1.53-1.44-3.42-1.47-4.88,0-2.97,3.04-5.33,6.67-6.25,10.75-.73,3.24-2.29,5.84-4.06,8.41-5.54,8.02-12.51,14.77-19.61,21.34-5.01,4.63-10.81,8.31-17.35,10.58-1.72.6-2.98,1.71-4.16,2.98-1.34,1.44-2.84,2.4-4.9,2.37-1.38-.02-2.7.49-3.82,1.24-3.23,2.17-7.08,3.21-10.05,5.9-1.97,1.79-7.45,1.36-9.56-.43-1.09-.92-2.07-1.97-3.08-2.98-5.79-5.8-11.96-11.16-18.19-16.47-1.37-1.16-2.66-2.46-3.75-3.88-1.19-1.55-.56-2.95,1.31-3.35,5.8-1.25,11.44-3,16.9-5.31,1.69-.71,3.4-1.19,5.25-1.08.22.01.48.06.67-.03,3.8-1.74,8.24-1.32,11.88-3.67,2.08-1.35,4.39-2.26,6.86-2.76,2.6-.53,4.66-2.29,7.09-3.3,10.97-4.52,19.18-12.7,27.06-21.21,3.53-3.81,6.3-8.19,8.56-12.86,1.36-2.8.28-4.71-2.78-4.72-12.03-.05-24.12-.73-36.08.2-11.51.89-22.97.25-34.45.61-3.65.12-4.4-.73-4.4-4.32-.02-6.92-.04-13.84-.02-20.76,0-4.69,1.06-5.73,5.69-5.73,21.66,0,43.31-.09,64.97.08,4.91.04,9.67-1.27,14.58-1.02,1.89.1,3.27-1.22,3.13-3.13-.38-5.3,1.17-10.44,1.04-15.71-.12-4.47,1.1-5.52,5.64-5.53,1.73,0,3.46-.02,5.19.02,2.72.07,3.67.98,3.7,3.7.05,4.74.01,9.48.03,14.22.01,4.53,1.92,6.49,6.45,6.49,23.23.01,46.47,0,69.7,0,1.05,0,2.11-.04,3.16.05,2.28.21,3.73,1.48,3.68,3.78-.18,7.37,1.43,14.65.96,22.03-.24,3.72-1.28,4.97-5.09,4.98-12.78.02-25.57,0-38.35,0Z"/>
      <path class="cls-1" d="m262.06,96.69c0,18.88.09,37.77-.07,56.65-.03,3.79.25,7.65-.06,11.36-1.51,18.03-.34,36.07-.75,54.1-.07,2.97-1.48,4.44-4.46,4.49-3.98.07-7.97.06-11.96.02-2.53-.03-3.06-.93-3.68-3.3-1.18-4.45-.06-8.78.03-13.17.18-9.25-.11-18.51.08-27.76.2-9.46-.19-18.91-.11-28.36.03-3.55,1.27-6.94,1.01-10.52-.23-3.14-.82-4.07-3.87-4.91-2-.55-4.03-.48-6.05-.4-20.42.83-40.85,1.04-61.29.86-2.61-.02-3.66,1.03-3.55,3.82.31,8.02-.2,16.04.67,24.09.82,7.66.22,15.48.22,23.23,0,3.39,0,6.77-.05,10.16-.05,3.97.23,7.94-.7,11.9-.52,2.23-.38,4.65.31,6.93.42,1.39.47,2.81.38,4.25-.12,1.97-1.17,3.11-3.13,3.14-4.66.07-9.33.12-13.99.02-2.27-.05-3.68-1.46-3.67-3.76.03-4.42-.19-8.81.48-13.26.74-4.86.41-9.85-.13-14.82-.5-4.63-2.31-9.27-.58-14.02.1-.27.12-.6.11-.89-.32-10.07,1.23-20.15.79-30.16-1.62-36.02-.25-72.03-.73-108.05-.05-3.66.17-3.88,3.75-3.88,4.06,0,8.12,0,12.18.03,3.17.02,4.06.86,4.07,4.01.02,10.83-.26,21.68.1,32.5.17,5.23,1.46,10.52.65,15.69-1.3,8.26-.44,16.51-.75,24.76-.16,4.31.79,5.17,5.09,5.18,11.66.02,23.32.3,34.97-.12,5.15-.19,10.32-1.16,15.48-.7,4.49.4,8.94.97,13.47.84,3.98-.12,4.64-.95,4.94-4.96,1.8-24.18.34-48.39.82-72.58.08-3.93.72-4.6,4.62-4.62,3.23-.01,6.47-.03,9.7-.02,5.34.02,5.66.35,5.67,5.6,0,18.88,0,37.77,0,56.65,0,0,.01,0,.02,0Z"/>
      <path class="cls-1" d="m354.33,204.21c7.44,0,14.89,0,22.33,0,1.88,0,3.73-.22,5.59-.51,3.24-.51,5.7.34,5.35,4.19-.3,3.28-.13,6.61-.05,9.92.05,2.02-.79,2.72-2.79,2.85-20.26,1.34-40.55.69-60.82.9-4.72.05-9.37,1.18-14.13.91-3.82-.22-4.5-.68-4.58-4.44-.02-1.14-.07-2.29-.61-3.3-1.76-3.28-1.62-6.74-.6-10.09,2.07-6.81.9-13.75,1.22-20.63.26-5.55.46-11.16.27-16.66-.45-12.86-.14-25.71-.23-38.55-.15-20.23-.57-40.48.19-60.69.36-9.68.34-19.35.65-29.02.09-2.72,1.01-3.77,3.69-3.7,3.42.09,6.75-.25,9.98-1.42,1.07-.39,2.21-.4,3.34-.4,18.12,0,36.24-.02,54.36-.01,1.52,0,2.98-.22,4.46-.53,2.67-.55,4.52.76,4.62,3.48.13,3.68.1,7.37-.02,11.05-.08,2.49-1.11,3.3-3.84,3.31-12.63.02-25.26-.06-37.89.08-5.24.06-10.43,1.19-15.7.89-1.52-.08-2,.97-2.09,2.37-.92,13.5-1.01,27.01-.88,40.53.05,5.19,0,10.38-.01,15.57,0,3.06.51,3.62,3.39,4.78,2.17.88,4.16,1.51,6.38.07.67-.43,1.75-.3,2.65-.3,9.02-.02,18.06-.3,27.06.12,4.55.22,9.1.73,13.68.8,1.76.02,2.76,1.18,2.78,2.94.05,4.06.03,8.12.03,12.18,0,2.04-1.41,2.17-2.95,2.17-9.62,0-19.25,0-28.87,0-6.24,0-12.48-.04-18.72,0-5.71.04-7.18,1.55-6.04,7.05.58,2.8-.24,5.35-.24,8.02-.03,17.22-.02,34.45,0,51.67,0,3.42,1.03,4.4,4.49,4.41,8.2.02,16.39,0,24.59,0h0Z"/>
      <path class="cls-1" d="m264.41,788.54c-3.72-.2-7.63.56-11.31-.88-4.97-1.94-10.36-3.09-13.92-7.69-1.46-1.89-3.36-3.44-5.05-5.15-2.68-2.72-5.69-5.17-6.47-9.26-.16-.83-.8-1.62-1.35-2.32-2.01-2.59-2.64-5.59-3.55-8.7-1.23-4.18-2-8.51-3.45-12.63-1.14-3.22-.78-6.67-1.62-9.95-1.39-5.38-.41-10.96-1.07-16.36-.65-5.25-.72-10.47-.78-15.72-.02-1.53.22-2.97.93-4.36.4-.79.76-1.7.79-2.56.11-3.46.96-6.93.86-10.28-.21-6.99,2.61-13.04,4.82-19.29,1.45-4.09,3.23-8.12,5.71-11.69,2.25-3.24,4.34-6.7,7.85-8.88,2.05-1.28,3.52-3.25,5.53-4.62,4.25-2.87,8.84-4.41,13.98-4.24,1.53.05,2.91-.41,4.36-.91,4-1.37,8.12-1.61,12.06.11,2.96,1.29,6.05,2.18,9.02,3.49,7.83,3.43,13.35,9.15,17.91,16.19,2.91,4.49,5.24,9.25,7.32,14.1,3.02,7.05,5.12,14.31,4.85,22.22-.19,5.59.69,11.2,1.48,16.77.22,1.55.46,3.22.12,4.71-1.46,6.26-.57,12.59-.82,18.88-.13,3.25-.85,6.33-1.94,9.41-.85,2.38-1.4,4.96-1.48,7.48-.1,3.31-1.73,6.02-2.74,8.97-.44,1.28-1,2.5-1.09,3.88-.03.59-.08,1.29-.4,1.73-2.31,3.21-3.41,7.23-6.6,9.86-1.54,1.27-2.52,2.94-3.29,4.78-1.11,2.66-2.94,4.67-5.68,5.79-.75.31-1.42.83-2.07,1.33-2.18,1.7-4.54,2.91-7.35,3.13-.82.06-1.78.1-2.39.55-4.02,2.94-8.63,1.97-13.16,2.12Zm31.82-77.54c0-3.91.18-7.84-.05-11.73-.22-3.57-.45-7.25-1.48-10.64-1.31-4.3-1.92-8.71-1.98-13.05-.06-4.49-1.85-8.38-4.31-11.29-5.39-6.38-11.14-12.52-19.23-16-4.19-1.8-7.52-1.32-11.34.4-3.91,1.76-7.13,4.41-10.37,7.06-2.01,1.65-4.04,3.35-5.11,5.91-1.41,3.37-2.71,6.76-3.95,10.19-1.18,3.25-2.64,6.4-3.06,9.84-.42,3.5-2.51,6.55-2.24,10.27.25,3.5-.28,7.02-.56,10.54-.52,6.65-.9,13.48.1,20.02.62,4.04,1.41,8.04,1.5,12.15.02,1,.65,1.84.89,2.76.91,3.44,2.99,6.57,2.7,10.34-.16,1.97.58,3.65,2,5.08.73.74,1.37,1.62,1.84,2.55,1.68,3.34,3.97,6.18,6.7,8.71,1.71,1.58,3.27,3.3,4.79,5.09,1.8,2.13,4.16,3.59,7,3.68,7.68.25,15.05-.54,20.33-7.17.42-.53,1.05-.9,1.41-1.45,1.97-3.01,5.54-5.07,6.46-8.55,1.11-4.21,3.64-7.92,4.05-12.34.18-1.95.87-3.78,1.75-5.56.66-1.35,1.07-2.83,1.16-4.34.42-7.49,1.62-14.95,1.02-22.49Z"/>
      <path class="cls-1" d="m87.87,92.39c0,11.66-.42,23.34.19,34.97.28,5.34-.44,10.57-.22,15.87.21,5.18-.36,10.42.11,15.56,1.72,18.99.33,38.01.83,57.01.03,1.13.03,2.26-.03,3.38-.16,2.69-1.43,4.06-4.09,4.11-3.98.08-7.97.07-11.95-.03-2.74-.07-3.93-1.54-3.94-4.68-.04-10.68-.05-21.36-.03-32.04,0-3.69-1.11-7.24-.91-10.98.24-4.34,1.27-8.6.96-13-2.02-28.99-.38-58.02-.92-87.03-.06-3.3-.96-6.51-1.01-9.85-.03-2.09-.26-4.14.03-6.26.54-3.95-1.18-5.8-5.12-5.81-9.7-.03-19.4-.03-29.1-.06-3.36-.01-3.57-.23-3.59-3.6-.03-4.21.03-8.43-.04-12.64-.03-2,.78-2.86,2.81-2.84,6.84.05,13.74-.53,20.52.11,16.74,1.57,33.5.25,50.23.8,3.18.1,6.31-.13,9.35-1.11,2.64-.85,5.35-.81,8.05-.63,3.9.26,5.54,2.2,5.82,6.05.28,3.88-.99,7.58-1.07,11.42-.05,2.19-2.08,2.47-3.91,2.47-7.67,0-15.34.01-23.01.02-2.11,0-4.21-.01-6.32,0-3.34.03-3.64.31-3.65,3.59,0,11.13,0,22.27.01,33.4,0,.6,0,1.2,0,1.81h.02Z"/>
      <path class="cls-1" d="m127.46,740.02c0-13.76-.7-27.57.17-41.28,1.22-19.39.19-38.77.69-58.14.09-3.51,1.31-4.79,4.78-4.8,9.85-.03,19.7.02,29.55-.07,2.45-.02,4.82.53,7.11,1.07,5.94,1.4,12.27,1.89,17.29,5.88,3.18,2.52,6.04,5.42,8.52,8.65.79,1.02,1.2,2.32,1.3,3.57.21,2.67.6,5.2,2.42,7.34.59.69.51,1.71.51,2.62,0,6.77,0,13.54-.01,20.31,0,1.14-.17,2.24-.52,3.33-.95,2.92-1.84,5.83-2.53,8.84-.83,3.62-2.8,6.97-5.33,9.79-2.21,2.46-4.44,5-7.07,6.95-3.5,2.59-7.17,5.03-11.93,4.96-8.04-.13-16.09-.06-24.13-.01-4.14.02-5.34,1.29-5.37,5.45-.03,4.21.33,8.46-.08,12.63-1.47,14.93-.45,29.89-.8,44.83-.07,2.86-.93,3.74-3.82,3.84-2.25.08-4.51.09-6.77.06-3.11-.03-4.01-.93-4.01-4.08-.01-13.91,0-27.83,0-41.74,0,0,.02,0,.03,0Zm27.79-89.64v.02c-2.1,0-4.21,0-6.31,0-4.92,0-6.05,1.14-6.04,6.15.02,11.58.04,23.16.06,34.74,0,1.35.03,2.71-.39,4.03-.65,2.05-.59,4.16-.52,6.26.08,2.49,1.14,3.74,3.58,3.67,6.26-.18,12.64,1.04,18.73-1.48.67-.28,1.48-.17,2.23-.28,2.74-.4,5.36-1.18,7.05-3.55,1.68-2.34,3.6-4.44,5.69-6.38,3.55-3.29,4.69-7.63,4.93-12.16.25-4.71-.36-9.43-.61-14.14-.35-6.68-4.82-10.09-9.34-12.84-4.91-2.99-10.7-4.76-16.79-4.05-.74.09-1.5.01-2.25.01Z"/>
      <path class="cls-1" d="m62.95,789.47c-1.88,0-3.78-.19-5.63.04-4.8.59-9.36-.67-13.09-3.21-5.04-3.43-10.33-6.73-14.18-11.68-1.46-1.88-1.4-4.34.3-5.68,2.02-1.59,3.73-3.49,5.65-5.17,2.37-2.08,4.02-2.03,6.3.15,2.93,2.8,5.62,5.83,9.15,7.98,3.04,1.85,6.12,3.15,9.75,2.9,1.57-.11,3.16-.09,4.73,0,2.94.15,5.36-.46,7.84-2.48,2.13-1.73,4.61-2.97,6.08-5.43.04-.06.1-.13.17-.15,6.4-2.08,5.57-8.35,7.76-12.96,2.17-4.59.66-8.76-.36-12.94-.7-2.9-2.31-5.72-4.08-8.18-1.95-2.72-4.32-5.29-7.19-7.1-6.46-4.08-13.03-7.96-19.94-11.33-5.77-2.81-11.06-6.68-14.17-12.73-.37-.72-.89-1.41-1.47-1.98-1.43-1.41-2.57-2.94-2.66-5.05,0-.07-.02-.16-.06-.22-2.79-3.95-2.48-8.49-2.65-12.99-.31-8.3-.41-16.56,1.88-24.66.27-.95.49-1.94,1.23-2.62,2.25-2.06,3.82-4.58,5.31-7.21,2.68-4.72,6.9-7.62,11.96-9.38,1.99-.69,3.67-2.07,5.77-2.53,6.92-1.52,13.86-1.19,20.82-.34.15.02.3.11.44.1,4.82-.63,8.63,1.97,12.52,4.1,3.14,1.72,5.53,4.4,7.52,7.31,1.22,1.78.62,4.69-.89,6.28-1.5,1.58-3.05,3.11-4.64,4.61-1.93,1.83-3.57,1.98-5.92.62-1.98-1.15-3.39-2.96-5.01-4.52-4.27-4.09-9.36-5.43-14.95-3.77-3.46,1.02-7.31.86-10.29,3.55-2.51,2.27-5.02,4.53-7.14,7.17-1.41,1.75-2.28,3.7-2.11,6.03.04.51.02,1.13-.23,1.54-2.29,3.84-1.32,8.05-1.48,12.14-.02.59.05,1.24.28,1.77,2.55,5.87,5.39,11.52,10.87,15.35,2.94,2.05,5.54,4.56,9.17,5.55,1.87.51,3.17,2.22,4.77,3.33,6.3,4.41,13.76,7.13,18.89,13.27,5.98,7.17,10.4,15.03,10.03,24.6-.19,5.01-.75,10.01-.91,15.04-.08,2.36-1.18,4.72-2.17,6.8-3.03,6.35-6.15,12.89-11.87,17.27-4.76,3.65-10.21,6.38-16.42,6.76-3.22.2-6.46.03-9.7.03,0,0,0,0,0,0Z"/>
      <path class="cls-1" d="m344.06,729.98c0-15.27.44-30.55-.17-45.79-.35-8.77-.57-17.54-.81-26.31-.05-1.77-.59-3.55-1.04-5.29-.5-1.91-2.1-2.17-3.75-2.18-5.94-.03-11.88-.02-17.82-.04-3.64-.01-4.41-.77-4.43-4.33-.01-2.11-.05-4.22.06-6.32.13-2.38,1.29-3.78,3.64-3.77,6.44.03,12.91-.92,19.31.57,1.15.27,2.39.18,3.59.18,13.38,0,26.76-.03,40.14-.02,4.07,0,4.73.69,4.74,4.72,0,2.03-.05,4.06.03,6.09.08,2.12-.83,2.97-2.95,2.94-7.07-.07-14.13-.06-21.2-.05-3.87,0-4.6.9-4.78,4.83-.32,6.71,1.4,13.42.75,19.99-1.02,10.23-1.01,20.44-.54,30.6.58,12.47.6,24.92.72,37.38,0,.66.08,1.4.36,1.98,2.34,4.85,1.81,9.74.32,14.66-.48,1.6-.72,3.21-.71,4.89.03,5.71.05,11.43.03,17.15-.01,3.04-.9,3.93-3.88,3.98-2.18.03-4.36.02-6.54-.01-2.25-.03-3.59-1.16-4.19-3.36-.7-2.57-.94-5.16-.93-7.81.03-14.89.01-29.78.01-44.67h.06Z"/>
      <path class="cls-1" d="m165.52,351.56c-2.15-.04-3.8.07-5.25-1.02-3.54-2.65-3.89-6.07-1.06-9.78,2.74-3.58,4.61-7.65,6.67-11.65,2.29-4.47,3.44-9.49,6.55-13.54.14-.18.29-.37.34-.58,1.44-6.36,4.52-12.27,5.18-18.83.31-3.05,1.28-5.89,2.85-8.46.97-1.6,1.63-3.15,1.71-5.02.15-3.43,2.18-4.98,5.58-4.3,2.68.54,5.22,1.36,7.04,3.66,1.1,1.39,2.64,2.12,4.34,2.67,2.61.84,4.7,2.66,6.87,4.26,1.68,1.24,3.44,2.28,5.45,2.57,4.31.63,5.06,4.06,3.85,7.96-.68,2.18-2.03,4.11-3.48,6-3.15,4.09-5.92,8.47-8.92,12.68-2.3,3.22-4.44,6.63-7.15,9.49-7.24,7.64-15.01,14.71-23.78,20.62-2.27,1.53-4.01,4.06-6.79,3.28Z"/>
      <path class="cls-1" d="m48.88,315.52c-.73-4.48,3.93-8.82,9.13-7.19,2.75.86,5.31,1.78,7.56,3.76,1.98,1.75,4.65,2.56,6.94,3.97,3.44,2.12,6.41,4.78,9.32,7.38,5.14,4.6,10.64,8.83,15.24,14.02,1.89,2.13,1.93,3.37-.02,5.44-4.14,4.41-9.13,7.73-14.15,11.02-2.98,1.95-5.15,4.81-7.71,7.23-1.28,1.21-2.64,2.25-4.32,2.78-2.68.85-4.2-.21-4.93-2.93-.91-3.36-.67-6.87-1.54-10.24-.56-2.15-1.36-4.11-2.58-5.94-2.99-4.49-5-9.37-5.82-14.73-.6-3.93-3.7-6.45-5.57-9.67-.95-1.63-1.75-3.12-1.55-4.9Z"/>
    </g>
  </g>
</svg>